<svg width="56" height="56" viewBox="0 0 56 56" fill="none" xmlns="http://www.w3.org/2000/svg">
<path d="M16.805 56C15.2645 56 13.9463 55.4521 12.8502 54.3564C11.7523 53.2588 11.2033 51.94 11.2033 50.4C11.2033 48.86 11.7523 47.5412 12.8502 46.4436C13.9463 45.3479 15.2645 44.8 16.805 44.8C18.3455 44.8 19.6637 45.3479 20.7598 46.4436C21.8577 47.5412 22.4067 48.86 22.4067 50.4C22.4067 51.94 21.8577 53.2588 20.7598 54.3564C19.6637 55.4521 18.3455 56 16.805 56ZM44.8133 56C43.2729 56 41.9546 55.4521 40.8586 54.3564C39.7606 53.2588 39.2117 51.94 39.2117 50.4C39.2117 48.86 39.7606 47.5412 40.8586 46.4436C41.9546 45.3479 43.2729 44.8 44.8133 44.8C46.3538 44.8 47.673 45.3479 48.7709 46.4436C49.867 47.5412 50.415 48.86 50.415 50.4C50.415 51.94 49.867 53.2588 48.7709 54.3564C47.673 55.4521 46.3538 56 44.8133 56ZM14.4243 11.2L21.1463 25.2H40.7521L48.4544 11.2H14.4243ZM11.7635 5.6H53.0758C54.3362 5.6 55.1998 6.06667 55.6666 7C56.1334 7.93333 56.11 8.91333 55.5965 9.94L45.6536 27.86C45.1401 28.7933 44.4632 29.5167 43.623 30.03C42.7827 30.5433 41.8258 30.8 40.7521 30.8H19.8859L16.805 36.4H50.415V42H16.805C14.7044 42 13.1172 41.0779 12.0436 39.2336C10.9699 37.3912 10.9233 35.56 11.9035 33.74L15.6847 26.88L5.60167 5.6H0L0 0L9.10271 0L11.7635 5.6ZM21.1463 25.2H40.7521H21.1463Z" fill="black"/>
</svg>
