<svg width="60" height="50" viewBox="0 0 60 50" fill="none" xmlns="http://www.w3.org/2000/svg">
<path d="M6.60826 26.227L3.90488 23.5429C2.65332 22.2648 1.68911 20.7945 1.01226 19.1319C0.337421 17.4714 0 15.6953 0 13.8037C0 9.9182 1.31464 6.64622 3.94393 3.98773C6.57121 1.32924 9.7622 0 13.5169 0C15.219 0 16.8961 0.34458 18.5482 1.03374C20.2002 1.72495 21.6771 2.73517 22.9787 4.06442L25.6821 6.74847L6.60826 26.227ZM29.9625 50L10.8135 30.5982L36.9462 4.06442C38.2478 2.73517 39.7377 1.72495 41.4158 1.03374C43.0919 0.34458 44.781 0 46.4831 0C50.1877 0 53.3547 1.32924 55.984 3.98773C58.6113 6.64622 59.9499 9.9182 60 13.8037C60 15.5419 59.6496 17.2802 58.9487 19.0184C58.2478 20.7566 57.2716 22.2648 56.02 23.5429L29.9625 50Z" fill="black"/>
</svg>
