<svg width="60" height="50" viewBox="0 0 60 50" fill="none" xmlns="http://www.w3.org/2000/svg">
<path d="M33.9256 50C31.1885 50 28.4754 49.5722 25.7863 48.7167C23.0972 47.8593 20.6242 46.5741 18.3673 44.8611C17.6951 44.3519 17.3349 43.6926 17.2869 42.8833C17.2389 42.0722 17.503 41.3426 18.0792 40.6944C18.5594 40.1852 19.1721 39.9074 19.9174 39.8611C20.6607 39.8148 21.3205 40.0232 21.8968 40.4861C23.6254 41.7824 25.5818 42.7657 27.7657 43.4361C29.9515 44.1083 32.0528 44.4444 34.0696 44.4444C39.6399 44.4444 44.3938 42.5463 48.3313 38.75C52.2689 34.9537 54.2377 30.3704 54.2377 25C54.2377 19.6296 52.2689 15.0463 48.3313 11.25C44.3938 7.4537 39.6399 5.55556 34.0696 5.55556C28.5474 5.55556 23.805 7.41852 19.8425 11.1444C15.8819 14.8722 13.9016 19.6759 13.9016 25.5556L17.2149 22.3611C17.7431 21.8519 18.4154 21.5972 19.2317 21.5972C20.048 21.5972 20.7203 21.8519 21.2485 22.3611C21.7767 22.8704 22.0408 23.5185 22.0408 24.3056C22.0408 25.0926 21.7767 25.7407 21.2485 26.25L13.0372 34.1667C12.461 34.7222 11.7887 35 11.0204 35C10.2521 35 9.57983 34.7222 9.0036 34.1667L0.864346 26.3194C0.288115 25.7639 0 25.0926 0 24.3056C0 23.5185 0.288115 22.8704 0.864346 22.3611C1.44058 21.8519 2.13686 21.5972 2.95318 21.5972C3.76951 21.5972 4.44178 21.875 4.96999 22.4306L8.13926 25.5556C8.13926 21.9444 8.81152 18.5759 10.1561 15.45C11.5006 12.3259 13.3493 9.61759 15.7023 7.325C18.0552 5.03426 20.8048 3.24074 23.951 1.94444C27.0953 0.648148 30.4682 0 34.0696 0C37.6231 0 40.9729 0.659259 44.1191 1.97778C47.2634 3.29815 50.012 5.09259 52.3649 7.36111C54.7179 9.62963 56.5791 12.2796 57.9486 15.3111C59.3162 18.3444 60 21.5741 60 25C60 28.4259 59.3162 31.6556 57.9486 34.6889C56.5791 37.7204 54.7179 40.3704 52.3649 42.6389C50.012 44.9074 47.2509 46.7019 44.0816 48.0222C40.9124 49.3407 37.527 50 33.9256 50ZM36.9508 23.8889L44.1537 30.8333C44.6819 31.3426 44.946 31.9907 44.946 32.7778C44.946 33.5648 44.6819 34.213 44.1537 34.7222C43.6255 35.2315 42.9532 35.4861 42.1369 35.4861C41.3205 35.4861 40.6483 35.2315 40.12 34.7222L32.0528 26.9444C31.7647 26.6667 31.5486 26.3537 31.4046 26.0056C31.2605 25.6593 31.1885 25.3009 31.1885 24.9306V13.8889C31.1885 13.1019 31.4651 12.4417 32.0182 11.9083C32.5695 11.3769 33.2533 11.1111 34.0696 11.1111C34.886 11.1111 35.5707 11.3769 36.1239 11.9083C36.6751 12.4417 36.9508 13.1019 36.9508 13.8889V23.8889Z" fill="black"/>
</svg>
