<svg width="248" height="36" viewBox="0 0 248 36" fill="none" xmlns="http://www.w3.org/2000/svg">
<path d="M241.67 25.3753C241.67 24.0378 241.336 22.98 240.671 22.2032C240.006 21.4235 238.811 20.6669 237.09 19.9261C233.739 18.7097 231.215 17.3334 229.525 15.7942C227.832 14.255 226.987 12.1003 226.987 9.3289C226.987 6.5762 227.953 4.32937 229.884 2.60136C231.814 0.867594 234.276 0 237.269 0C240.444 0 242.995 0.92671 244.926 2.77289C246.856 4.61907 247.792 7.09649 247.73 10.2066L247.687 10.345H241.536C241.536 8.60544 241.157 7.2853 240.402 6.38743C239.648 5.48667 238.566 5.03559 237.157 5.03559C235.944 5.03559 235.002 5.44919 234.329 6.26779C233.654 7.09216 233.319 8.11975 233.319 9.35054C233.319 10.4905 233.701 11.4302 234.463 12.1681C235.226 12.9089 236.537 13.716 238.392 14.5951C241.549 15.6702 243.94 17.0322 245.566 18.6823C247.188 20.3296 248 22.5448 248 25.3306C248 28.2102 247.05 30.4714 245.15 32.1187C243.248 33.766 240.727 34.5903 237.583 34.5903C234.486 34.5903 231.837 33.704 229.636 31.9212C227.437 30.1457 226.372 27.4391 226.448 23.8073L226.493 23.666H232.665C232.665 25.7774 233.082 27.2921 233.912 28.2144C234.742 29.1397 235.966 29.6009 237.583 29.6009C238.944 29.6009 239.967 29.2147 240.648 28.4479C241.328 27.6783 241.67 26.6536 241.67 25.3753Z" fill="black"/>
<path d="M15.2266 25.3753C15.2266 24.0378 14.8946 22.98 14.2278 22.2032C13.5624 21.4235 12.3697 20.6669 10.6466 19.9261C7.29393 18.7097 4.77188 17.3334 3.08188 15.7942C1.39045 14.255 0.544007 12.1003 0.544007 9.3289C0.544007 6.5762 1.50973 4.32937 3.44115 2.60136C5.37114 0.867594 7.83284 0 10.8277 0C14.0008 0 16.5516 0.92671 18.483 2.77289C20.413 4.61907 21.3485 7.09649 21.2881 10.2066L21.2436 10.345H15.0915C15.0915 8.60544 14.7135 7.2853 13.9576 6.38743C13.2032 5.48667 12.1211 5.03559 10.7142 5.03559C9.50127 5.03559 8.55855 5.44919 7.886 6.26779C7.21201 7.09216 6.87575 8.11975 6.87575 9.35054C6.87575 10.4905 7.258 11.4302 8.01965 12.1681C8.78273 12.9089 10.0919 13.716 11.9486 14.5951C15.1059 15.6702 17.4971 17.0322 19.121 18.6823C20.7449 20.3296 21.5569 22.5448 21.5569 25.3306C21.5569 28.2102 20.607 30.4714 18.7057 32.1187C16.8045 33.766 14.2824 34.5903 11.1395 34.5903C8.04121 34.5903 5.39268 33.704 3.19109 31.9212C0.992367 30.1457 -0.0710478 27.4391 0.00367993 23.8073L0.0496629 23.666H6.22188C6.22188 25.7774 6.63863 27.2921 7.46926 28.2144C8.29988 29.1397 9.52283 29.6009 11.1395 29.6009C12.5004 29.6009 13.5236 29.2147 14.2034 28.4479C14.886 27.6783 15.2266 26.6536 15.2266 25.3753Z" fill="black"/>
<path d="M97.2331 26.6362H97.3869L104.403 2.04932H113.887V35.1969H106.691V14.3212L106.537 14.2967L99.7767 35.1969H94.9194L88.2112 14.4566L88.0574 14.4783V35.1969H80.8347V2.04932H90.2662L97.2331 26.6362Z" fill="black"/>
<path d="M223.751 7.58217H216.551V34.4764H210.593V7.58217H203.583V2.76855H223.75V7.58217H223.751Z" fill="black"/>
<path d="M200.991 34.5989L193.603 21.765C194.72 21.2836 195.703 20.599 196.542 19.6954C198.338 17.7613 199.236 15.2089 199.236 12.0368C199.236 8.87914 198.338 6.3282 196.542 4.37536C194.745 2.42686 192.31 1.45117 189.236 1.45117H178.985V6.48382L185.113 17.5681H184.922L178.985 17.5422V34.5989H184.922V22.5994H187.787L194.165 34.5974H200.991V34.5989ZM184.922 6.48241H189.236C190.569 6.48241 191.582 7.00844 192.278 8.06485C192.971 9.11981 193.32 10.4572 193.32 12.0815C193.32 13.674 192.972 14.9898 192.278 16.0217C191.924 16.5449 191.489 16.934 190.97 17.1906L184.807 6.48241H184.922V6.48241Z" fill="black"/>
<path d="M48.4243 34.5989L41.0378 21.765C42.1544 21.2836 43.1373 20.599 43.9751 19.6954C45.7715 17.7613 46.6697 15.2089 46.6697 12.0368C46.6697 8.87914 45.7715 6.3282 43.9751 4.37536C42.1788 2.42686 39.7444 1.45117 36.6705 1.45117H26.4185V6.48382L32.5461 17.5681H32.355L26.4185 17.5422V34.5989H32.355V22.5994H35.2205L41.5982 34.5974H48.4243V34.5989ZM32.355 6.48241H36.6705C38.0041 6.48241 39.0172 7.00844 39.7128 8.06485C40.4055 9.11981 40.7547 10.4572 40.7547 12.0815C40.7547 13.674 40.4069 14.9898 39.7128 16.0217C39.3593 16.5449 38.9224 16.934 38.405 17.1906L32.2415 6.48241H32.355V6.48241Z" fill="black"/>
<path d="M64.8544 30.4525V5.59603H60.6294V1.44971H75.0001V5.59603H70.7751V30.4525H75.0001V34.5988H60.6294V30.4525H64.8544Z" fill="black"/>
<path d="M141.214 4.3739C139.3 2.42539 136.709 1.44971 133.437 1.44971H122.525V6.48816L128.844 6.4824H133.435C134.855 6.4824 135.933 7.00842 136.675 8.06483C137.413 9.11979 137.783 10.4572 137.783 12.0814C137.783 13.674 137.412 14.9898 136.675 16.0217C136.015 16.9426 135.069 17.4269 133.866 17.5249L128.347 6.49392H122.524L128.41 17.5681H122.524V34.5988H128.842V22.5994H133.434C136.706 22.5994 139.297 21.6309 141.211 19.6939C143.123 17.7598 144.078 15.2074 144.078 12.0354C144.081 8.88056 143.126 6.32673 141.214 4.3739Z" fill="black"/>
<path d="M160.205 23.9168C165.761 23.9168 170.265 19.4 170.265 13.8283C170.265 8.25662 165.761 3.73987 160.205 3.73987C154.65 3.73987 150.146 8.25662 150.146 13.8283C150.146 19.4 154.65 23.9168 160.205 23.9168Z" stroke="black" stroke-width="5" stroke-miterlimit="10"/>
<path d="M171.265 29.7939H149.148V34.3886H171.265V29.7939Z" fill="black"/>
<path d="M52.2341 32.0898C52.2341 30.2321 53.7344 28.7261 55.5868 28.7261C57.4392 28.7261 58.9395 30.2321 58.9395 32.0898C58.9395 33.9446 57.4392 35.4507 55.5868 35.4507C53.7359 35.4507 52.2341 33.9446 52.2341 32.0898Z" fill="black"/>
</svg>
