<svg width="66" height="65" viewBox="0 0 66 65" fill="none" xmlns="http://www.w3.org/2000/svg">
<path d="M21.7722 32.0674L30.3258 22.6265L42.118 27.4474L40.8701 39.844L28.2869 42.7013L21.7722 32.0674ZM25.5925 1.78211C29.8933 0.805511 34.1892 0.683217 38.4803 1.41523C42.7715 2.14724 46.6463 3.56262 50.1047 5.66139C53.5632 7.76016 56.562 10.5161 59.1013 13.9291C61.6406 17.3422 63.3826 21.1286 64.3271 25.2883C65.2717 29.448 65.3359 33.6154 64.5197 37.7904C63.7035 41.9654 62.1889 45.7462 59.9761 49.1328C57.7632 52.5194 54.8797 55.4695 51.3255 57.9829C47.7714 60.4964 43.8439 62.2415 39.5432 63.2181C35.2425 64.1947 30.9465 64.317 26.6554 63.585C22.3643 62.853 18.4895 61.4376 15.031 59.3388C11.5726 57.24 8.57369 54.4841 6.0344 51.0711C3.4951 47.658 1.75317 43.8716 0.808589 39.7119C-0.135988 35.5522 -0.200165 31.3848 0.616057 27.2098C1.43228 23.0347 2.94682 19.2539 5.15967 15.8674C7.37252 12.4808 10.256 9.53073 13.8102 7.01724C17.3643 4.50375 21.2918 2.7587 25.5925 1.78211ZM58.0431 43.0825C60.5104 37.6433 61.0928 32.0553 59.7901 26.3186L59.7667 26.2157L56.8442 30.0879L46.5934 24.3402L46.3119 12.7595L51.155 12.0924C46.5413 8.18899 41.2134 6.01002 35.1713 5.55544L38.0153 9.38L29.0802 17.1411L17.6695 14.0001L18.5828 9.32232C13.3295 12.3418 9.46522 16.6081 6.98979 22.1213L11.6815 20.6233L16.3937 31.1978L9.63059 40.809L5.32227 38.5788L5.34563 38.6816C6.64831 44.4184 9.58691 49.2069 14.1614 53.047L14.1972 48.2802L26.0638 47.0276L33.3107 56.1252L29.7362 59.4245C32.7033 59.688 35.6402 59.4898 38.5467 58.8298C41.4533 58.1698 44.1877 57.0802 46.7501 55.561L42.1012 54.1291L44.7082 42.7939L55.9521 38.7986L58.0431 43.0825Z" fill="black"/>
</svg>
