<svg width="22" height="30" viewBox="0 0 22 30" fill="none" xmlns="http://www.w3.org/2000/svg">
<path d="M1.0038 29.2617C1.61724 29.7539 2.39797 30 3.34601 30C4.29404 30 5.07478 29.7539 5.68822 29.2617L21.0798 16.9128C21.4144 16.6443 21.652 16.3535 21.7925 16.0403C21.9308 15.7271 22 15.3915 22 15.0336C22 14.6756 21.9308 14.34 21.7925 14.0268C21.652 13.7136 21.4144 13.4228 21.0798 13.1544L5.60456 0.738255C4.99113 0.246084 4.23828 0 3.34601 0C2.45374 0 1.673 0.268461 1.0038 0.805372C0.390369 1.29754 0.0836525 1.92394 0.0836525 2.68456C0.0836525 3.44519 0.390369 4.07159 1.0038 4.56376L14.0532 15.0336L0.920155 25.5705C0.306721 26.0626 0 26.6667 0 27.3826C0 28.0984 0.334602 28.7248 1.0038 29.2617Z" fill="white"/>
</svg>
