<svg width="76" height="75" viewBox="0 0 76 75" fill="none" xmlns="http://www.w3.org/2000/svg">
<path d="M38 37.5C32.775 37.5 28.3021 35.6641 24.5813 31.9922C20.8604 28.3203 19 23.9062 19 18.75C19 13.5938 20.8604 9.17969 24.5813 5.50781C28.3021 1.83594 32.775 0 38 0C43.225 0 47.6979 1.83594 51.4188 5.50781C55.1396 9.17969 57 13.5938 57 18.75C57 23.9062 55.1396 28.3203 51.4188 31.9922C47.6979 35.6641 43.225 37.5 38 37.5ZM0 75V61.875C0 59.2188 0.693501 56.7766 2.0805 54.5484C3.46433 52.3234 5.30417 50.625 7.6 49.4531C12.5083 47.0312 17.4958 45.2141 22.5625 44.0016C27.6292 42.7922 32.775 42.1875 38 42.1875C43.225 42.1875 48.3708 42.7922 53.4375 44.0016C58.5042 45.2141 63.4917 47.0312 68.4 49.4531C70.6958 50.625 72.5357 52.3234 73.9195 54.5484C75.3065 56.7766 76 59.2188 76 61.875V75H0Z" fill="white"/>
</svg>
