<?xml version="1.0" encoding="utf-8"?>
<!-- Generator: Adobe Illustrator 16.0.3, SVG Export Plug-In . SVG Version: 6.00 Build 0)  -->
<!DOCTYPE svg PUBLIC "-//W3C//DTD SVG 1.1//EN" "http://www.w3.org/Graphics/SVG/1.1/DTD/svg11.dtd">
<svg version="1.1" xmlns="http://www.w3.org/2000/svg" xmlns:xlink="http://www.w3.org/1999/xlink" x="0px" y="0px" width="100%" height="100%" preserveAspectRatio="xMinYMin" viewBox="0 0 1920 1080" enable-background="new 0 0 1920 1080" xml:space="preserve">
<g id="defaut">
</g>
<g id="base">
</g>
<g id="modif">
	<g>
		<path d="M880.615,569.729c0-0.93-0.231-1.664-0.695-2.201c-0.463-0.541-1.293-1.068-2.492-1.58
			c-2.333-0.844-4.088-1.799-5.264-2.867c-1.177-1.068-1.766-2.563-1.766-4.486c0-1.912,0.672-3.469,2.016-4.67
			c1.343-1.203,3.056-1.803,5.14-1.803c2.208,0,3.983,0.641,5.327,1.922c1.343,1.283,1.994,3.002,1.952,5.16l-0.031,0.096h-4.281
			c0-1.207-0.263-2.123-0.789-2.746c-0.525-0.627-1.278-0.939-2.257-0.939c-0.844,0-1.5,0.287-1.968,0.857
			c-0.469,0.572-0.703,1.285-0.703,2.139c0,0.791,0.266,1.441,0.796,1.955c0.531,0.512,1.442,1.072,2.734,1.682
			c2.197,0.748,3.861,1.693,4.991,2.836c1.13,1.143,1.695,2.682,1.695,4.615c0,1.996-0.661,3.566-1.984,4.709
			c-1.323,1.143-3.078,1.715-5.265,1.715c-2.156,0-3.999-0.615-5.531-1.852c-1.53-1.232-2.27-3.109-2.218-5.631l0.032-0.096h4.295
			c0,1.463,0.29,2.516,0.868,3.156c0.578,0.641,1.429,0.961,2.554,0.961c0.947,0,1.659-0.268,2.132-0.801
			S880.615,570.615,880.615,569.729z"/>
		<path d="M723.043,569.729c0-0.93-0.231-1.664-0.695-2.201c-0.463-0.541-1.293-1.068-2.492-1.58
			c-2.333-0.844-4.088-1.799-5.264-2.867c-1.177-1.068-1.766-2.563-1.766-4.486c0-1.912,0.672-3.469,2.016-4.67
			c1.343-1.203,3.056-1.803,5.14-1.803c2.208,0,3.983,0.641,5.327,1.922c1.343,1.283,1.994,3.002,1.952,5.16l-0.031,0.096h-4.281
			c0-1.207-0.263-2.123-0.789-2.746c-0.525-0.627-1.278-0.939-2.257-0.939c-0.844,0-1.5,0.287-1.968,0.857
			c-0.469,0.572-0.703,1.285-0.703,2.139c0,0.791,0.266,1.441,0.796,1.955c0.531,0.512,1.442,1.072,2.734,1.682
			c2.197,0.748,3.861,1.693,4.991,2.836c1.13,1.143,1.695,2.682,1.695,4.615c0,1.996-0.661,3.566-1.984,4.709
			c-1.323,1.143-3.078,1.715-5.265,1.715c-2.156,0-3.999-0.615-5.531-1.852c-1.53-1.232-2.27-3.109-2.218-5.631l0.032-0.096h4.295
			c0,1.463,0.29,2.516,0.868,3.156c0.578,0.641,1.429,0.961,2.554,0.961c0.947,0,1.659-0.268,2.132-0.801
			S723.043,570.615,723.043,569.729z"/>
		<path d="M780.104,570.361h0.112l5.094-16.318h6.887v22h-5.226v-13.855l-0.111-0.016l-4.909,13.871h-3.527l-4.871-13.766
			l-0.112,0.016v13.75h-5.244v-22h6.849L780.104,570.361z"/>
		<path d="M868.147,557.381h-5.01v18.662h-4.146v-18.662h-4.878v-3.338h14.033V557.381z"/>
		<line fill="#25B0D6" stroke="#25B0D6" stroke-miterlimit="10" x1="744.003" y1="576.75" x2="744.003" y2="576.75"/>
		<line fill="#25B0D6" stroke="#25B0D6" stroke-miterlimit="10" x1="744.003" y1="576.75" x2="744.149" y2="576.75"/>
		<path d="M852.309,576.127l-5.14-8.904c0.777-0.334,1.461-0.809,2.044-1.436c1.25-1.344,1.875-3.113,1.875-5.314
			c0-2.191-0.625-3.963-1.875-5.316c-1.25-1.352-2.944-2.029-5.083-2.029h-7.134v3.49l0,0l4.264,7.693h-0.133l-4.131-0.02v11.836
			h4.131v-8.324h1.994l4.438,8.324H852.309z M841.127,556.617h3.003c0.928,0,1.633,0.367,2.117,1.098
			c0.482,0.732,0.725,1.662,0.725,2.789c0,1.105-0.242,2.016-0.725,2.732c-0.246,0.363-0.55,0.633-0.91,0.813l-4.289-7.432H841.127z
			"/>
		<path d="M746.144,576.127l-5.14-8.904c0.777-0.334,1.461-0.809,2.044-1.436c1.25-1.344,1.875-3.113,1.875-5.314
			c0-2.191-0.625-3.963-1.875-5.316c-1.25-1.352-2.944-2.029-5.083-2.029h-7.134v3.49l0,0l4.264,7.693h-0.133l-4.131-0.02v11.836
			h4.131v-8.324h1.994l4.438,8.324H746.144z M734.962,556.617h3.003c0.928,0,1.633,0.367,2.117,1.098
			c0.482,0.732,0.725,1.662,0.725,2.789c0,1.105-0.242,2.016-0.725,2.732c-0.246,0.363-0.55,0.633-0.91,0.813l-4.289-7.432H734.962z
			"/>
		<path d="M757.577,573.25v-17.248h-2.94v-2.875h10v2.875h-2.94v17.248h2.94v2.877h-10v-2.877H757.577z"/>
		<path d="M810.713,555.156c-1.331-1.354-3.134-2.029-5.411-2.029h-7.593v3.494l4.397-0.004h3.196c0.988,0,1.738,0.367,2.254,1.098
			c0.514,0.732,0.771,1.662,0.771,2.789c0,1.105-0.258,2.016-0.771,2.732c-0.46,0.639-1.118,0.977-1.955,1.045l-3.841-7.654h-4.052
			l4.096,7.684h-4.096v11.816h4.397v-8.326h3.196c2.277,0,4.08-0.67,5.411-2.014c1.33-1.344,1.996-3.113,1.996-5.314
			C812.708,558.281,812.043,556.51,810.713,555.156z"/>
		<circle fill="none" stroke="#000000" stroke-width="3" stroke-miterlimit="10" cx="823.929" cy="561.717" r="7"/>
		<rect x="816.234" y="572.793" width="15.39" height="3.188"/>
		<path d="M748.795,574.387c0-1.289,1.044-2.334,2.333-2.334l0,0c1.289,0,2.333,1.045,2.333,2.334l0,0
			c0,1.287-1.044,2.332-2.333,2.332l0,0C749.84,576.719,748.795,575.674,748.795,574.387L748.795,574.387z"/>
		<path fill="none" stroke="#000000" stroke-width="3" stroke-miterlimit="10" d="M770.712,541.887h-6.083l-0.042-33.875
			c0,0-0.292-2.417,2.667-2.75s61.75-0.148,61.75-0.148s3.625-0.436,3.375,2.773s0.012,34,0.012,34h-6.096l-0.042-30.458
			l-55.667-0.25L770.712,541.887z"/>
	</g>
</g>
</svg>
