<?xml version="1.0" encoding="utf-8"?>
<!-- Generator: Adobe Illustrator 16.0.3, SVG Export Plug-In . SVG Version: 6.00 Build 0)  -->
<!DOCTYPE svg PUBLIC "-//W3C//DTD SVG 1.1//EN" "http://www.w3.org/Graphics/SVG/1.1/DTD/svg11.dtd">
<svg x="0px" y="0px" width="100%" height="100%" preserveAspectRatio="xMinYMin meet" viewBox="0 0 600 600" enable-background="new 0 0 500 500" 
version="1.1" id="Layer_1" xmlns="http://www.w3.org/2000/svg" xmlns:xlink="http://www.w3.org/1999/xlink" xml:space="preserve">
<g>
	<path d="M265.195,225.887c0-0.928-0.232-1.662-0.695-2.201c-0.463-0.541-1.295-1.066-2.492-1.58
		c-2.332-0.844-4.088-1.799-5.264-2.867c-1.178-1.068-1.766-2.563-1.766-4.486c0-1.91,0.672-3.469,2.016-4.668
		c1.342-1.203,3.055-1.805,5.139-1.805c2.209,0,3.984,0.643,5.328,1.924c1.342,1.281,1.994,3,1.951,5.158l-0.031,0.096h-4.279
		c0-1.207-0.264-2.123-0.789-2.746c-0.525-0.625-1.279-0.938-2.258-0.938c-0.844,0-1.5,0.287-1.969,0.855
		c-0.469,0.571-0.703,1.285-0.703,2.139c0,0.791,0.266,1.443,0.797,1.955c0.531,0.514,1.443,1.074,2.734,1.684
		c2.197,0.746,3.861,1.691,4.992,2.836c1.129,1.143,1.693,2.68,1.693,4.613c0,1.998-0.66,3.566-1.982,4.709
		c-1.324,1.145-3.078,1.715-5.266,1.715c-2.156,0-3.998-0.613-5.531-1.852c-1.529-1.232-2.271-3.109-2.217-5.629l0.029-0.1h4.295
		c0,1.467,0.289,2.518,0.867,3.156c0.578,0.643,1.432,0.963,2.557,0.963c0.945,0,1.656-0.268,2.133-0.801
		C264.957,227.482,265.195,226.773,265.195,225.887z"/>
	<path d="M107.622,225.887c0-0.928-0.231-1.662-0.695-2.201c-0.463-0.541-1.293-1.066-2.492-1.58
		c-2.333-0.844-4.088-1.799-5.264-2.867c-1.177-1.068-1.766-2.563-1.766-4.486c0-1.91,0.672-3.469,2.016-4.668
		c1.343-1.203,3.056-1.805,5.14-1.805c2.208,0,3.983,0.643,5.327,1.924c1.343,1.281,1.994,3,1.952,5.158l-0.031,0.096h-4.281
		c0-1.207-0.263-2.123-0.789-2.746c-0.525-0.625-1.278-0.938-2.257-0.938c-0.844,0-1.5,0.287-1.968,0.855
		c-0.469,0.571-0.703,1.285-0.703,2.139c0,0.791,0.266,1.443,0.796,1.955c0.531,0.514,1.442,1.074,2.734,1.684
		c2.197,0.746,3.861,1.691,4.991,2.836c1.13,1.143,1.695,2.68,1.695,4.613c0,1.998-0.661,3.566-1.984,4.709
		c-1.323,1.145-3.078,1.715-5.265,1.715c-2.156,0-3.999-0.613-5.531-1.852c-1.53-1.232-2.27-3.109-2.218-5.629l0.032-0.1h4.295
		c0,1.467,0.29,2.518,0.868,3.156c0.578,0.643,1.429,0.963,2.554,0.963c0.947,0,1.659-0.268,2.132-0.801
		C107.385,227.482,107.622,226.773,107.622,225.887z"/>
	<path d="M164.687,226.762h0.107l4.882-17.061h6.6v23h-5.008v-14.484l-0.106-0.018l-4.704,14.502h-3.381l-4.667-14.391l-0.107,0.015
		v14.376h-5.025v-23h6.563L164.687,226.762z"/>
	<path d="M252.727,213.541h-5.012v18.66h-4.145v-18.66h-4.877V210.2h14.033V213.541L252.727,213.541z"/>
	<path d="M236.887,232.285l-5.141-8.904c0.777-0.334,1.461-0.811,2.045-1.438c1.25-1.341,1.875-3.111,1.875-5.313
		c0-2.191-0.625-3.961-1.875-5.316c-1.25-1.352-2.945-2.029-5.084-2.029h-7.133v3.492l0,0l4.264,7.691h-0.133l-4.131-0.019v11.835
		h4.131v-8.324h1.994l4.438,8.324H236.887z M225.707,212.776h3.002c0.928,0,1.633,0.365,2.117,1.099
		c0.48,0.731,0.725,1.66,0.725,2.787c0,1.104-0.242,2.018-0.725,2.733c-0.246,0.362-0.549,0.633-0.91,0.812l-4.289-7.431H225.707
		L225.707,212.776z"/>
	<path d="M130.722,232.285l-5.14-8.904c0.777-0.334,1.461-0.811,2.044-1.438c1.25-1.341,1.875-3.111,1.875-5.313
		c0-2.191-0.625-3.961-1.875-5.316c-1.25-1.352-2.944-2.029-5.083-2.029h-7.134v3.492l0,0l4.264,7.691h-0.133l-4.131-0.019v11.835
		h4.131v-8.324h1.994l4.438,8.324H130.722z M119.541,212.776h3.003c0.928,0,1.633,0.365,2.117,1.099
		c0.482,0.731,0.725,1.66,0.725,2.787c0,1.104-0.242,2.018-0.725,2.733c-0.246,0.362-0.55,0.633-0.91,0.812l-4.289-7.431H119.541
		L119.541,212.776z"/>
	<path d="M142.156,229.408v-17.246h-2.94v-2.877h10v2.877h-2.94v17.246h2.94v2.877h-10v-2.877H142.156z"/>
	<path d="M195.292,211.314c-1.332-1.352-3.135-2.029-5.411-2.029h-7.595v3.496l4.397-0.004h3.195c0.988,0,1.738,0.365,2.254,1.098
		c0.515,0.732,0.771,1.66,0.771,2.787c0,1.105-0.258,2.018-0.771,2.734c-0.459,0.639-1.117,0.975-1.955,1.043l-3.84-7.654h-4.053
		l4.096,7.684h-4.096v11.818h4.398v-8.326h3.195c2.276,0,4.079-0.672,5.411-2.016c1.33-1.342,1.994-3.113,1.994-5.314
		C197.287,214.441,196.623,212.67,195.292,211.314z"/>
	<circle fill="none" stroke="#000000" stroke-width="4" stroke-miterlimit="10" cx="208.508" cy="217.875" r="7"/>
	<rect x="200.811" y="228.951" width="15.392" height="3.188"/>
	<path d="M133.375,230.545c0-1.289,1.044-2.334,2.332-2.334l0,0c1.289,0,2.334,1.045,2.334,2.334l0,0
		c0,1.287-1.045,2.332-2.334,2.332l0,0C134.418,232.877,133.375,231.832,133.375,230.545L133.375,230.545z"/>
	<path fill="none" stroke="#000000" stroke-width="3" stroke-miterlimit="10" d="M155.291,198.045h-6.084l-0.041-33.875
		c0,0-0.292-2.417,2.666-2.75c2.959-0.333,61.752-0.148,61.752-0.148s3.625-0.436,3.375,2.773s0.013,34,0.013,34h-6.097
		l-0.041-30.458l-55.668-0.25L155.291,198.045z"/>
</g>
</svg>
