<?xml version="1.0" encoding="utf-8"?>
<!-- Generator: Adobe Illustrator 16.0.3, SVG Export Plug-In . SVG Version: 6.00 Build 0)  -->
<!DOCTYPE svg PUBLIC "-//W3C//DTD SVG 1.1//EN" "http://www.w3.org/Graphics/SVG/1.1/DTD/svg11.dtd">
<svg version="1.1" id="Layer_1" xmlns="http://www.w3.org/2000/svg" xmlns:xlink="http://www.w3.org/1999/xlink" x="0px" y="0px"
	 width="15px" height="15px" viewBox="0 0 15 15" enable-background="new 0 0 15 15" xml:space="preserve">
<path fill-rule="evenodd" clip-rule="evenodd" fill="#040404" d="M0.083,13.758c0-0.174,0-0.348,0-0.521
	c0.022-0.005,0.028-0.021,0.032-0.041c0.071-0.322,0.256-0.574,0.486-0.803c1.598-1.591,3.188-3.188,4.787-4.778
	C5.49,7.513,5.478,7.47,5.383,7.373c-1.608-1.6-3.212-3.205-4.816-4.81c-0.35-0.352-0.48-0.78-0.385-1.259
	c0.109-0.545,0.445-0.917,0.98-1.073c0.529-0.156,1.002-0.029,1.396,0.361c1.61,1.599,3.22,3.198,4.824,4.802
	c0.1,0.098,0.145,0.08,0.23-0.007c1.276-1.279,2.552-2.555,3.828-3.832c0.354-0.351,0.693-0.717,1.065-1.043
	c0.552-0.48,1.413-0.403,1.906,0.14c0.507,0.554,0.492,1.401-0.029,1.924c-1.588,1.587-3.175,3.175-4.762,4.761
	C9.484,7.476,9.484,7.476,9.624,7.615c1.602,1.593,3.204,3.186,4.807,4.778c0.185,0.182,0.335,0.385,0.417,0.633
	c0.023,0.07,0.023,0.147,0.07,0.211c0,0.155,0,0.31,0,0.464c-0.05,0.04-0.041,0.103-0.058,0.155
	c-0.137,0.43-0.402,0.751-0.841,0.887c-0.621,0.194-1.187,0.089-1.661-0.388c-1.588-1.592-3.181-3.18-4.768-4.773
	C7.5,9.491,7.459,9.495,7.371,9.584c-1.576,1.581-3.162,3.157-4.734,4.744c-0.364,0.369-0.783,0.523-1.287,0.5
	c-0.599-0.03-1.049-0.381-1.216-0.959C0.123,13.831,0.133,13.778,0.083,13.758z"/>
</svg>
