<?xml version="1.0" encoding="utf-8"?>
<!-- Generator: Adobe Illustrator 16.0.3, SVG Export Plug-In . SVG Version: 6.00 Build 0)  -->
<!DOCTYPE svg PUBLIC "-//W3C//DTD SVG 1.1//EN" "http://www.w3.org/Graphics/SVG/1.1/DTD/svg11.dtd">
<svg version="1.1" id="Layer_1" xmlns="http://www.w3.org/2000/svg" xmlns:xlink="http://www.w3.org/1999/xlink" x="0px" y="0px"
	width="100%" height="100%" preserveAspectRatio="xMinYMin" viewBox="0 0 500 500" enable-background="new 0 0 500 500" xml:space="preserve">
<path fill="#FFFFFF" d="M332.055,279.826c0-0.928-0.232-1.662-0.695-2.201c-0.463-0.541-1.294-1.066-2.492-1.58
	c-2.332-0.844-4.088-1.799-5.264-2.867c-1.178-1.068-1.766-2.563-1.766-4.486c0-1.91,0.672-3.469,2.016-4.668
	c1.343-1.203,3.056-1.805,5.139-1.805c2.209,0,3.984,0.643,5.328,1.924c1.343,1.281,1.994,3,1.951,5.158l-0.03,0.096h-4.28
	c0-1.207-0.264-2.123-0.789-2.746c-0.525-0.625-1.278-0.938-2.258-0.938c-0.844,0-1.5,0.287-1.968,0.855
	c-0.47,0.572-0.703,1.285-0.703,2.139c0,0.791,0.266,1.443,0.796,1.955c0.531,0.514,1.443,1.074,2.734,1.684
	c2.197,0.746,3.861,1.691,4.992,2.836c1.129,1.143,1.694,2.68,1.694,4.613c0,1.998-0.661,3.567-1.983,4.71
	c-1.324,1.143-3.078,1.715-5.266,1.715c-2.155,0-3.998-0.615-5.53-1.852c-1.53-1.232-2.271-3.11-2.218-5.63l0.031-0.098h4.295
	c0,1.465,0.29,2.516,0.868,3.156c0.577,0.642,1.429,0.962,2.554,0.962c0.947,0,1.659-0.268,2.133-0.8
	C331.817,281.424,332.055,280.713,332.055,279.826z"/>
<path fill="#FFFFFF" d="M174.482,279.826c0-0.928-0.231-1.662-0.695-2.201c-0.463-0.541-1.293-1.066-2.492-1.58
	c-2.333-0.844-4.088-1.799-5.264-2.867c-1.177-1.068-1.766-2.563-1.766-4.486c0-1.91,0.672-3.469,2.016-4.668
	c1.343-1.203,3.056-1.805,5.14-1.805c2.208,0,3.983,0.643,5.327,1.924c1.343,1.281,1.994,3,1.952,5.158l-0.031,0.096h-4.281
	c0-1.207-0.263-2.123-0.789-2.746c-0.525-0.625-1.278-0.938-2.257-0.938c-0.844,0-1.5,0.287-1.968,0.855
	c-0.469,0.572-0.703,1.285-0.703,2.139c0,0.791,0.266,1.443,0.796,1.955c0.531,0.514,1.442,1.074,2.734,1.684
	c2.197,0.746,3.861,1.691,4.991,2.836c1.13,1.143,1.695,2.68,1.695,4.613c0,1.998-0.661,3.567-1.984,4.71
	c-1.323,1.143-3.078,1.715-5.265,1.715c-2.156,0-3.999-0.615-5.531-1.852c-1.53-1.232-2.27-3.11-2.218-5.63l0.032-0.098h4.295
	c0,1.465,0.29,2.516,0.868,3.156c0.578,0.642,1.429,0.962,2.554,0.962c0.947,0,1.659-0.268,2.132-0.8
	C174.245,281.424,174.482,280.713,174.482,279.826z"/>
<path fill="#FFFFFF" d="M231.547,280.701h0.107l4.882-17.06h6.6v23h-5.008v-14.485l-0.107-0.017l-4.704,14.502h-3.38l-4.668-14.391
	l-0.107,0.015v14.376h-5.026v-23h6.563L231.547,280.701z"/>
<path fill="#FFFFFF" d="M319.586,267.48h-5.01v18.661h-4.146V267.48h-4.878v-3.34h14.033V267.48z"/>
<line fill="#FFFFFF" x1="195.442" y1="286.849" x2="195.442" y2="286.849"/>
<line fill="#FFFFFF" x1="195.442" y1="286.849" x2="195.588" y2="286.849"/>
<path fill="#FFFFFF" d="M303.748,286.226l-5.141-8.905c0.777-0.334,1.461-0.809,2.045-1.436c1.25-1.342,1.875-3.113,1.875-5.314
	c0-2.191-0.625-3.961-1.875-5.316c-1.25-1.352-2.945-2.029-5.084-2.029h-7.133v3.492l0,0l4.264,7.691h-0.133l-4.131-0.018v11.835
	h4.131V277.9h1.994l4.438,8.325H303.748z M292.566,266.717h3.002c0.928,0,1.633,0.365,2.117,1.098
	c0.482,0.732,0.725,1.66,0.725,2.787c0,1.105-0.242,2.018-0.725,2.734c-0.246,0.363-0.549,0.633-0.91,0.811l-4.289-7.43H292.566z"/>
<path fill="#FFFFFF" d="M197.583,286.226l-5.14-8.905c0.777-0.334,1.461-0.809,2.044-1.436c1.25-1.342,1.875-3.113,1.875-5.314
	c0-2.191-0.625-3.961-1.875-5.316c-1.25-1.352-2.944-2.029-5.083-2.029h-7.134v3.492l0,0l4.264,7.691h-0.133l-4.131-0.018v11.835
	h4.131V277.9h1.994l4.438,8.325H197.583z M186.401,266.717h3.003c0.928,0,1.633,0.365,2.117,1.098
	c0.482,0.732,0.725,1.66,0.725,2.787c0,1.105-0.242,2.018-0.725,2.734c-0.246,0.363-0.55,0.633-0.91,0.811l-4.289-7.43H186.401z"/>
<path fill="#FFFFFF" d="M209.016,283.349v-17.247h-2.94v-2.877h10v2.877h-2.94v17.247h2.94v2.877h-10v-2.877H209.016z"/>
<path fill="#FFFFFF" d="M262.152,265.254c-1.332-1.352-3.135-2.029-5.412-2.029h-7.593v3.496l4.397-0.004h3.195
	c0.988,0,1.738,0.365,2.254,1.098c0.514,0.732,0.771,1.66,0.771,2.787c0,1.105-0.258,2.018-0.771,2.734
	c-0.459,0.639-1.117,0.975-1.954,1.043l-3.841-7.654h-4.052l4.096,7.684h-4.096v11.817h4.397V277.9h3.195
	c2.277,0,4.08-0.672,5.412-2.016c1.33-1.342,1.995-3.113,1.995-5.314C264.147,268.381,263.482,266.609,262.152,265.254z"/>
<circle fill="none" stroke="#FFFFFF" stroke-width="4" stroke-miterlimit="10" cx="275.367" cy="271.814" r="7"/>
<rect x="267.673" y="282.892" fill="#FFFFFF" width="15.39" height="3.188"/>
<path fill="#FFFFFF" d="M200.234,284.485c0-1.289,1.044-2.334,2.333-2.334l0,0c1.289,0,2.333,1.045,2.333,2.334l0,0
	c0,1.287-1.044,2.332-2.333,2.332l0,0C201.279,286.817,200.234,285.772,200.234,284.485L200.234,284.485z"/>
<path fill="none" stroke="#FFFFFF" stroke-width="2" stroke-miterlimit="10" d="M222.151,251.984h-6.083l-0.042-33.875
	c0,0-0.292-2.417,2.667-2.75s61.751-0.148,61.751-0.148s3.625-0.436,3.375,2.773s0.012,34,0.012,34h-6.096l-0.041-30.458
	l-55.667-0.25L222.151,251.984z"/>
</svg>
