<?xml version="1.0" encoding="utf-8"?>
<!-- Generator: Adobe Illustrator 16.0.3, SVG Export Plug-In . SVG Version: 6.00 Build 0)  -->
<!DOCTYPE svg PUBLIC "-//W3C//DTD SVG 1.1//EN" "http://www.w3.org/Graphics/SVG/1.1/DTD/svg11.dtd">
<svg version="1.1" id="Layer_1" xmlns="http://www.w3.org/2000/svg" xmlns:xlink="http://www.w3.org/1999/xlink" x="0px" y="0px"
	width="100%" height="100%" preserveAspectRatio="xMinYMin" viewBox="0 0 50 50" enable-background="new 0 0 50 50" xml:space="preserve">
<g>
	<path d="M17.478,31.74c0-1.115-0.276-1.998-0.835-2.648c-0.557-0.648-1.554-1.281-2.996-1.898c-2.806-1.016-4.917-2.165-6.332-3.45
		c-1.417-1.285-2.124-3.083-2.124-5.396c0-2.297,0.807-4.174,2.425-5.616c1.615-1.448,3.675-2.168,6.183-2.168
		c2.654,0,4.79,0.773,6.406,2.314c1.616,1.542,2.398,3.607,2.349,6.203l-0.038,0.114h-5.149c0-1.451-0.316-2.553-0.949-3.3
		c-0.63-0.752-1.539-1.126-2.715-1.126c-1.014,0-1.804,0.343-2.367,1.028c-0.564,0.687-0.846,1.545-0.846,2.575
		c0,0.952,0.321,1.737,0.957,2.35c0.64,0.62,1.735,1.291,3.289,2.023c2.643,0.901,4.644,2.038,6.003,3.412
		c1.359,1.375,2.039,3.227,2.039,5.547c0,2.402-0.795,4.289-2.387,5.664c-1.591,1.379-3.702,2.063-6.332,2.063
		c-2.594,0-4.81-0.74-6.652-2.227c-1.84-1.482-2.73-3.74-2.667-6.77l0.038-0.121h5.165c0,1.766,0.348,3.027,1.044,3.797
		c0.694,0.773,1.719,1.156,3.073,1.156c1.138,0,1.994-0.324,2.564-0.963C17.194,33.66,17.478,32.807,17.478,31.74z"/>
	<path d="M45.261,39.434l-6.182-10.709c0.934-0.4,1.756-0.977,2.455-1.729c1.504-1.614,2.256-3.745,2.256-6.388
		c0-2.636-0.752-4.765-2.256-6.396c-1.502-1.627-3.539-2.438-6.111-2.438h-8.58v4.195l0,0l5.129,9.253H31.81l-4.966-0.021v14.236
		h4.968V29.424h2.398l5.338,10.014h5.713V39.434z M31.813,15.972h3.611c1.115,0,1.965,0.438,2.545,1.323
		c0.58,0.877,0.873,1.995,0.873,3.349c0,1.329-0.291,2.428-0.873,3.288c-0.295,0.437-0.66,0.76-1.096,0.978l-5.158-8.938H31.813
		L31.813,15.972z"/>
</g>
</svg>
